<mxfile host="Electron" agent="Mozilla/5.0 (Windows NT 10.0; Win64; x64) AppleWebKit/537.36 (KHTML, like Gecko) draw.io/26.2.2 Chrome/134.0.6998.178 Electron/35.1.2 Safari/537.36" version="26.2.2">
  <diagram id="R2lEEEUBdFMjLlhIrx00" name="Page-1">
    <mxGraphModel dx="1428" dy="889" grid="1" gridSize="10" guides="1" tooltips="1" connect="1" arrows="1" fold="1" page="1" pageScale="1" pageWidth="780" pageHeight="780" math="0" shadow="0" extFonts="Permanent Marker^https://fonts.googleapis.com/css?family=Permanent+Marker">
      <root>
        <mxCell id="0" />
        <mxCell id="1" parent="0" />
        <mxCell id="oy4XWmKs3pjn0zVDLYOn-62" value="is a" style="shape=rhombus;perimeter=rhombusPerimeter;whiteSpace=wrap;html=1;align=center;" parent="1" vertex="1">
          <mxGeometry x="527.5" y="85" width="43" height="40" as="geometry" />
        </mxCell>
        <mxCell id="oy4XWmKs3pjn0zVDLYOn-63" value="Pokemon" style="whiteSpace=wrap;html=1;align=center;" parent="1" vertex="1">
          <mxGeometry x="41" y="85" width="103" height="40" as="geometry" />
        </mxCell>
        <mxCell id="oy4XWmKs3pjn0zVDLYOn-66" value="Wild Pokemon" style="whiteSpace=wrap;html=1;align=center;" parent="1" vertex="1">
          <mxGeometry x="635.5" y="85" width="103" height="40" as="geometry" />
        </mxCell>
        <mxCell id="oy4XWmKs3pjn0zVDLYOn-67" value="" style="endArrow=none;html=1;rounded=0;" parent="1" source="oy4XWmKs3pjn0zVDLYOn-62" target="oy4XWmKs3pjn0zVDLYOn-66" edge="1">
          <mxGeometry relative="1" as="geometry">
            <mxPoint x="325" y="325" as="sourcePoint" />
            <mxPoint x="485" y="325" as="targetPoint" />
          </mxGeometry>
        </mxCell>
        <mxCell id="oy4XWmKs3pjn0zVDLYOn-68" value="Destination" style="whiteSpace=wrap;html=1;align=center;" parent="1" vertex="1">
          <mxGeometry x="635" y="315" width="103" height="40" as="geometry" />
        </mxCell>
        <mxCell id="oy4XWmKs3pjn0zVDLYOn-69" value="Trainer" style="whiteSpace=wrap;html=1;align=center;" parent="1" vertex="1">
          <mxGeometry x="182" y="504" width="103" height="40" as="geometry" />
        </mxCell>
        <mxCell id="oy4XWmKs3pjn0zVDLYOn-70" value="Attack" style="whiteSpace=wrap;html=1;align=center;" parent="1" vertex="1">
          <mxGeometry x="366" y="410" width="103" height="40" as="geometry" />
        </mxCell>
        <mxCell id="oy4XWmKs3pjn0zVDLYOn-71" value="City" style="whiteSpace=wrap;html=1;align=center;" parent="1" vertex="1">
          <mxGeometry x="635" y="561" width="103" height="40" as="geometry" />
        </mxCell>
        <mxCell id="oy4XWmKs3pjn0zVDLYOn-74" style="edgeStyle=orthogonalEdgeStyle;rounded=0;orthogonalLoop=1;jettySize=auto;html=1;" parent="1" source="oy4XWmKs3pjn0zVDLYOn-73" target="oy4XWmKs3pjn0zVDLYOn-68" edge="1">
          <mxGeometry relative="1" as="geometry" />
        </mxCell>
        <mxCell id="oy4XWmKs3pjn0zVDLYOn-73" value="is a" style="shape=rhombus;perimeter=rhombusPerimeter;whiteSpace=wrap;html=1;align=center;" parent="1" vertex="1">
          <mxGeometry x="665" y="449" width="43" height="40" as="geometry" />
        </mxCell>
        <mxCell id="oy4XWmKs3pjn0zVDLYOn-75" value="" style="endArrow=none;html=1;rounded=0;" parent="1" source="oy4XWmKs3pjn0zVDLYOn-71" target="oy4XWmKs3pjn0zVDLYOn-73" edge="1">
          <mxGeometry relative="1" as="geometry">
            <mxPoint x="325" y="325" as="sourcePoint" />
            <mxPoint x="485" y="325" as="targetPoint" />
          </mxGeometry>
        </mxCell>
        <mxCell id="oy4XWmKs3pjn0zVDLYOn-80" value="caught" style="shape=rhombus;perimeter=rhombusPerimeter;whiteSpace=wrap;html=1;align=center;" parent="1" vertex="1">
          <mxGeometry x="207" y="355" width="53" height="50" as="geometry" />
        </mxCell>
        <mxCell id="oy4XWmKs3pjn0zVDLYOn-86" value="Poke Center" style="shape=ext;margin=3;double=1;whiteSpace=wrap;html=1;align=center;" parent="1" vertex="1">
          <mxGeometry x="635.5" y="735" width="103" height="40" as="geometry" />
        </mxCell>
        <mxCell id="oy4XWmKs3pjn0zVDLYOn-87" value="located in" style="shape=rhombus;perimeter=rhombusPerimeter;whiteSpace=wrap;html=1;align=center;" parent="1" vertex="1">
          <mxGeometry x="647.5" y="643" width="78" height="50" as="geometry" />
        </mxCell>
        <mxCell id="oy4XWmKs3pjn0zVDLYOn-90" value="Shop" style="shape=ext;margin=3;double=1;whiteSpace=wrap;html=1;align=center;" parent="1" vertex="1">
          <mxGeometry x="411.5" y="735" width="103" height="40" as="geometry" />
        </mxCell>
        <mxCell id="oy4XWmKs3pjn0zVDLYOn-92" value="located in" style="shape=rhombus;perimeter=rhombusPerimeter;whiteSpace=wrap;html=1;align=center;" parent="1" vertex="1">
          <mxGeometry x="424" y="556" width="78" height="50" as="geometry" />
        </mxCell>
        <mxCell id="oy4XWmKs3pjn0zVDLYOn-94" value="Item" style="whiteSpace=wrap;html=1;align=center;" parent="1" vertex="1">
          <mxGeometry x="45" y="735" width="103" height="40" as="geometry" />
        </mxCell>
        <mxCell id="oy4XWmKs3pjn0zVDLYOn-98" value="owns" style="shape=rhombus;perimeter=rhombusPerimeter;whiteSpace=wrap;html=1;align=center;" parent="1" vertex="1">
          <mxGeometry x="207" y="623" width="53" height="50" as="geometry" />
        </mxCell>
        <mxCell id="oy4XWmKs3pjn0zVDLYOn-106" value="" style="endArrow=none;html=1;rounded=0;" parent="1" target="oy4XWmKs3pjn0zVDLYOn-69" edge="1">
          <mxGeometry relative="1" as="geometry">
            <mxPoint x="233.61964962976344" y="621.1128770092107" as="sourcePoint" />
            <mxPoint x="234" y="542" as="targetPoint" />
          </mxGeometry>
        </mxCell>
        <mxCell id="oy4XWmKs3pjn0zVDLYOn-107" value="M" style="resizable=0;html=1;whiteSpace=wrap;align=right;verticalAlign=bottom;" parent="oy4XWmKs3pjn0zVDLYOn-106" connectable="0" vertex="1">
          <mxGeometry x="1" relative="1" as="geometry">
            <mxPoint x="14" y="20" as="offset" />
          </mxGeometry>
        </mxCell>
        <mxCell id="oy4XWmKs3pjn0zVDLYOn-111" value="wears" style="shape=rhombus;perimeter=rhombusPerimeter;whiteSpace=wrap;html=1;align=center;" parent="1" vertex="1">
          <mxGeometry x="70" y="400" width="53" height="50" as="geometry" />
        </mxCell>
        <mxCell id="oy4XWmKs3pjn0zVDLYOn-122" value="" style="endArrow=none;html=1;rounded=0;" parent="1" source="oy4XWmKs3pjn0zVDLYOn-83" target="oy4XWmKs3pjn0zVDLYOn-70" edge="1">
          <mxGeometry relative="1" as="geometry">
            <mxPoint x="388" y="414" as="sourcePoint" />
            <mxPoint x="548" y="414" as="targetPoint" />
          </mxGeometry>
        </mxCell>
        <mxCell id="oy4XWmKs3pjn0zVDLYOn-124" value="N" style="resizable=0;html=1;whiteSpace=wrap;align=right;verticalAlign=bottom;" parent="oy4XWmKs3pjn0zVDLYOn-122" connectable="0" vertex="1">
          <mxGeometry x="1" relative="1" as="geometry">
            <mxPoint x="-16" y="1" as="offset" />
          </mxGeometry>
        </mxCell>
        <mxCell id="oy4XWmKs3pjn0zVDLYOn-125" value="" style="endArrow=none;html=1;rounded=0;" parent="1" source="oy4XWmKs3pjn0zVDLYOn-63" target="oy4XWmKs3pjn0zVDLYOn-83" edge="1">
          <mxGeometry relative="1" as="geometry">
            <mxPoint x="99" y="125" as="sourcePoint" />
            <mxPoint x="56" y="265" as="targetPoint" />
          </mxGeometry>
        </mxCell>
        <mxCell id="oy4XWmKs3pjn0zVDLYOn-126" value="M" style="resizable=0;html=1;whiteSpace=wrap;align=left;verticalAlign=bottom;" parent="oy4XWmKs3pjn0zVDLYOn-125" connectable="0" vertex="1">
          <mxGeometry x="-1" relative="1" as="geometry">
            <mxPoint x="14" y="15" as="offset" />
          </mxGeometry>
        </mxCell>
        <mxCell id="oy4XWmKs3pjn0zVDLYOn-83" value="knows" style="shape=rhombus;perimeter=rhombusPerimeter;whiteSpace=wrap;html=1;align=center;" parent="1" vertex="1">
          <mxGeometry x="240" y="250" width="53" height="50" as="geometry" />
        </mxCell>
        <mxCell id="oy4XWmKs3pjn0zVDLYOn-128" value="" style="endArrow=none;html=1;rounded=0;" parent="1" source="oy4XWmKs3pjn0zVDLYOn-80" target="oy4XWmKs3pjn0zVDLYOn-69" edge="1">
          <mxGeometry relative="1" as="geometry">
            <mxPoint x="355" y="415" as="sourcePoint" />
            <mxPoint x="515" y="415" as="targetPoint" />
          </mxGeometry>
        </mxCell>
        <mxCell id="oy4XWmKs3pjn0zVDLYOn-129" value="N" style="resizable=0;html=1;whiteSpace=wrap;align=right;verticalAlign=bottom;" parent="oy4XWmKs3pjn0zVDLYOn-128" connectable="0" vertex="1">
          <mxGeometry x="1" relative="1" as="geometry">
            <mxPoint x="12" as="offset" />
          </mxGeometry>
        </mxCell>
        <mxCell id="oy4XWmKs3pjn0zVDLYOn-130" value="" style="endArrow=none;html=1;rounded=0;" parent="1" source="oy4XWmKs3pjn0zVDLYOn-80" target="oy4XWmKs3pjn0zVDLYOn-63" edge="1">
          <mxGeometry relative="1" as="geometry">
            <mxPoint x="355" y="415" as="sourcePoint" />
            <mxPoint x="515" y="415" as="targetPoint" />
          </mxGeometry>
        </mxCell>
        <mxCell id="oy4XWmKs3pjn0zVDLYOn-131" value="1" style="resizable=0;html=1;whiteSpace=wrap;align=right;verticalAlign=bottom;" parent="oy4XWmKs3pjn0zVDLYOn-130" connectable="0" vertex="1">
          <mxGeometry x="1" relative="1" as="geometry">
            <mxPoint x="3" y="17" as="offset" />
          </mxGeometry>
        </mxCell>
        <mxCell id="oy4XWmKs3pjn0zVDLYOn-133" value="" style="endArrow=none;html=1;rounded=0;" parent="1" source="oy4XWmKs3pjn0zVDLYOn-68" target="oy4XWmKs3pjn0zVDLYOn-135" edge="1">
          <mxGeometry relative="1" as="geometry">
            <mxPoint x="477.5" y="395" as="sourcePoint" />
            <mxPoint x="477.5" y="205" as="targetPoint" />
          </mxGeometry>
        </mxCell>
        <mxCell id="oy4XWmKs3pjn0zVDLYOn-134" value="1" style="resizable=0;html=1;whiteSpace=wrap;align=left;verticalAlign=bottom;" parent="oy4XWmKs3pjn0zVDLYOn-133" connectable="0" vertex="1">
          <mxGeometry x="-1" relative="1" as="geometry">
            <mxPoint x="-15" y="17" as="offset" />
          </mxGeometry>
        </mxCell>
        <mxCell id="oy4XWmKs3pjn0zVDLYOn-135" value="is in" style="shape=rhombus;perimeter=rhombusPerimeter;whiteSpace=wrap;html=1;align=center;" parent="1" vertex="1">
          <mxGeometry x="552.5" y="504" width="53" height="40" as="geometry" />
        </mxCell>
        <mxCell id="oy4XWmKs3pjn0zVDLYOn-136" value="" style="endArrow=none;html=1;rounded=0;" parent="1" source="oy4XWmKs3pjn0zVDLYOn-135" target="oy4XWmKs3pjn0zVDLYOn-69" edge="1">
          <mxGeometry relative="1" as="geometry">
            <mxPoint x="117.5" y="405" as="sourcePoint" />
            <mxPoint x="477.5" y="205" as="targetPoint" />
          </mxGeometry>
        </mxCell>
        <mxCell id="oy4XWmKs3pjn0zVDLYOn-137" value="N" style="resizable=0;html=1;whiteSpace=wrap;align=right;verticalAlign=bottom;" parent="oy4XWmKs3pjn0zVDLYOn-136" connectable="0" vertex="1">
          <mxGeometry x="1" relative="1" as="geometry">
            <mxPoint x="12" y="1" as="offset" />
          </mxGeometry>
        </mxCell>
        <mxCell id="oy4XWmKs3pjn0zVDLYOn-141" value="" style="endArrow=none;html=1;rounded=0;" parent="1" source="oy4XWmKs3pjn0zVDLYOn-90" target="oy4XWmKs3pjn0zVDLYOn-95" edge="1">
          <mxGeometry relative="1" as="geometry">
            <mxPoint x="305" y="595" as="sourcePoint" />
            <mxPoint x="115" y="555" as="targetPoint" />
          </mxGeometry>
        </mxCell>
        <mxCell id="oy4XWmKs3pjn0zVDLYOn-142" value="M" style="resizable=0;html=1;whiteSpace=wrap;align=left;verticalAlign=bottom;" parent="oy4XWmKs3pjn0zVDLYOn-141" connectable="0" vertex="1">
          <mxGeometry x="-1" relative="1" as="geometry">
            <mxPoint x="-15" y="-1" as="offset" />
          </mxGeometry>
        </mxCell>
        <mxCell id="oy4XWmKs3pjn0zVDLYOn-95" value="sells" style="shape=rhombus;perimeter=rhombusPerimeter;whiteSpace=wrap;html=1;align=center;" parent="1" vertex="1">
          <mxGeometry x="260" y="730" width="53" height="50" as="geometry" />
        </mxCell>
        <mxCell id="oy4XWmKs3pjn0zVDLYOn-146" value="" style="endArrow=none;html=1;rounded=0;dashed=1;dashPattern=1 2;" parent="1" source="oy4XWmKs3pjn0zVDLYOn-98" target="oy4XWmKs3pjn0zVDLYOn-94" edge="1">
          <mxGeometry relative="1" as="geometry">
            <mxPoint x="185" y="525" as="sourcePoint" />
            <mxPoint x="515" y="415" as="targetPoint" />
          </mxGeometry>
        </mxCell>
        <mxCell id="oy4XWmKs3pjn0zVDLYOn-147" value="N" style="resizable=0;html=1;whiteSpace=wrap;align=right;verticalAlign=bottom;" parent="oy4XWmKs3pjn0zVDLYOn-146" connectable="0" vertex="1">
          <mxGeometry x="1" relative="1" as="geometry">
            <mxPoint x="5" as="offset" />
          </mxGeometry>
        </mxCell>
        <mxCell id="oy4XWmKs3pjn0zVDLYOn-148" value="" style="endArrow=none;html=1;rounded=0;" parent="1" source="oy4XWmKs3pjn0zVDLYOn-92" target="oy4XWmKs3pjn0zVDLYOn-90" edge="1">
          <mxGeometry relative="1" as="geometry">
            <mxPoint x="355" y="415" as="sourcePoint" />
            <mxPoint x="515" y="415" as="targetPoint" />
          </mxGeometry>
        </mxCell>
        <mxCell id="oy4XWmKs3pjn0zVDLYOn-149" value="N" style="resizable=0;html=1;whiteSpace=wrap;align=right;verticalAlign=bottom;" parent="oy4XWmKs3pjn0zVDLYOn-148" connectable="0" vertex="1">
          <mxGeometry x="1" relative="1" as="geometry">
            <mxPoint x="12" y="2" as="offset" />
          </mxGeometry>
        </mxCell>
        <mxCell id="oy4XWmKs3pjn0zVDLYOn-150" value="" style="endArrow=none;html=1;rounded=0;" parent="1" source="oy4XWmKs3pjn0zVDLYOn-92" target="oy4XWmKs3pjn0zVDLYOn-71" edge="1">
          <mxGeometry relative="1" as="geometry">
            <mxPoint x="535" y="625" as="sourcePoint" />
            <mxPoint x="415" y="619" as="targetPoint" />
          </mxGeometry>
        </mxCell>
        <mxCell id="oy4XWmKs3pjn0zVDLYOn-151" value="1" style="resizable=0;html=1;whiteSpace=wrap;align=right;verticalAlign=bottom;" parent="oy4XWmKs3pjn0zVDLYOn-150" connectable="0" vertex="1">
          <mxGeometry x="1" relative="1" as="geometry" />
        </mxCell>
        <mxCell id="oy4XWmKs3pjn0zVDLYOn-152" value="" style="endArrow=none;html=1;rounded=0;" parent="1" source="oy4XWmKs3pjn0zVDLYOn-87" target="oy4XWmKs3pjn0zVDLYOn-86" edge="1">
          <mxGeometry relative="1" as="geometry">
            <mxPoint x="499" y="627" as="sourcePoint" />
            <mxPoint x="445" y="565" as="targetPoint" />
          </mxGeometry>
        </mxCell>
        <mxCell id="oy4XWmKs3pjn0zVDLYOn-153" value="N" style="resizable=0;html=1;whiteSpace=wrap;align=right;verticalAlign=bottom;" parent="oy4XWmKs3pjn0zVDLYOn-152" connectable="0" vertex="1">
          <mxGeometry x="1" relative="1" as="geometry">
            <mxPoint x="13" y="3" as="offset" />
          </mxGeometry>
        </mxCell>
        <mxCell id="oy4XWmKs3pjn0zVDLYOn-154" value="" style="endArrow=none;html=1;rounded=0;" parent="1" source="oy4XWmKs3pjn0zVDLYOn-87" target="oy4XWmKs3pjn0zVDLYOn-71" edge="1">
          <mxGeometry relative="1" as="geometry">
            <mxPoint x="559" y="623" as="sourcePoint" />
            <mxPoint x="645" y="599" as="targetPoint" />
          </mxGeometry>
        </mxCell>
        <mxCell id="oy4XWmKs3pjn0zVDLYOn-155" value="1" style="resizable=0;html=1;whiteSpace=wrap;align=right;verticalAlign=bottom;" parent="oy4XWmKs3pjn0zVDLYOn-154" connectable="0" vertex="1">
          <mxGeometry x="1" relative="1" as="geometry">
            <mxPoint x="-2" y="16" as="offset" />
          </mxGeometry>
        </mxCell>
        <mxCell id="EIcoKnqhOw7Y9KkXc619-2" value="Type" style="whiteSpace=wrap;html=1;align=center;" parent="1" vertex="1">
          <mxGeometry x="470" y="219.5" width="103" height="40" as="geometry" />
        </mxCell>
        <mxCell id="EIcoKnqhOw7Y9KkXc619-6" value="" style="endArrow=none;html=1;rounded=0;elbow=vertical;" parent="1" source="EIcoKnqhOw7Y9KkXc619-10" target="EIcoKnqhOw7Y9KkXc619-2" edge="1">
          <mxGeometry relative="1" as="geometry">
            <mxPoint x="325" y="455" as="sourcePoint" />
            <mxPoint x="485" y="455" as="targetPoint" />
          </mxGeometry>
        </mxCell>
        <mxCell id="EIcoKnqhOw7Y9KkXc619-8" value="N" style="resizable=0;html=1;whiteSpace=wrap;align=right;verticalAlign=bottom;" parent="EIcoKnqhOw7Y9KkXc619-6" connectable="0" vertex="1">
          <mxGeometry x="1" relative="1" as="geometry" />
        </mxCell>
        <mxCell id="EIcoKnqhOw7Y9KkXc619-9" style="edgeStyle=elbowEdgeStyle;shape=arrow;rounded=0;orthogonalLoop=1;jettySize=auto;elbow=vertical;html=1;exitX=0.5;exitY=1;exitDx=0;exitDy=0;" parent="1" source="EIcoKnqhOw7Y9KkXc619-2" target="EIcoKnqhOw7Y9KkXc619-2" edge="1">
          <mxGeometry relative="1" as="geometry" />
        </mxCell>
        <mxCell id="EIcoKnqhOw7Y9KkXc619-11" value="" style="endArrow=none;html=1;rounded=0;elbow=vertical;" parent="1" source="py68GvTZYO0u-INU6iXj-1" target="EIcoKnqhOw7Y9KkXc619-10" edge="1">
          <mxGeometry relative="1" as="geometry">
            <mxPoint x="80" y="11.5" as="sourcePoint" />
            <mxPoint x="356.6057692307693" y="216.50480769230762" as="targetPoint" />
          </mxGeometry>
        </mxCell>
        <mxCell id="EIcoKnqhOw7Y9KkXc619-12" value="M" style="resizable=0;html=1;whiteSpace=wrap;align=left;verticalAlign=bottom;" parent="EIcoKnqhOw7Y9KkXc619-11" connectable="0" vertex="1">
          <mxGeometry x="-1" relative="1" as="geometry">
            <mxPoint x="11" y="17" as="offset" />
          </mxGeometry>
        </mxCell>
        <mxCell id="EIcoKnqhOw7Y9KkXc619-10" value="possess" style="shape=rhombus;perimeter=rhombusPerimeter;whiteSpace=wrap;html=1;align=center;" parent="1" vertex="1">
          <mxGeometry x="490.5" y="130" width="63" height="50" as="geometry" />
        </mxCell>
        <mxCell id="EIcoKnqhOw7Y9KkXc619-14" value="" style="endArrow=none;html=1;rounded=0;elbow=vertical;entryX=0.107;entryY=0.038;entryDx=0;entryDy=0;entryPerimeter=0;" parent="1" edge="1" target="EIcoKnqhOw7Y9KkXc619-2" source="EIcoKnqhOw7Y9KkXc619-17">
          <mxGeometry relative="1" as="geometry">
            <mxPoint x="673" y="540.5" as="sourcePoint" />
            <mxPoint x="592" y="443.5" as="targetPoint" />
            <Array as="points">
              <mxPoint x="410" y="200" />
              <mxPoint x="480" y="200" />
            </Array>
          </mxGeometry>
        </mxCell>
        <mxCell id="EIcoKnqhOw7Y9KkXc619-16" value="N" style="resizable=0;html=1;whiteSpace=wrap;align=right;verticalAlign=bottom;" parent="EIcoKnqhOw7Y9KkXc619-14" connectable="0" vertex="1">
          <mxGeometry x="1" relative="1" as="geometry">
            <mxPoint y="1" as="offset" />
          </mxGeometry>
        </mxCell>
        <mxCell id="EIcoKnqhOw7Y9KkXc619-21" value="" style="endArrow=none;html=1;rounded=0;elbow=vertical;" parent="1" source="EIcoKnqhOw7Y9KkXc619-2" target="EIcoKnqhOw7Y9KkXc619-17" edge="1">
          <mxGeometry relative="1" as="geometry">
            <mxPoint x="393" y="989.5" as="sourcePoint" />
            <mxPoint x="311" y="1039.5" as="targetPoint" />
          </mxGeometry>
        </mxCell>
        <mxCell id="EIcoKnqhOw7Y9KkXc619-22" value="M" style="resizable=0;html=1;whiteSpace=wrap;align=left;verticalAlign=bottom;" parent="EIcoKnqhOw7Y9KkXc619-21" connectable="0" vertex="1">
          <mxGeometry x="-1" relative="1" as="geometry">
            <mxPoint x="-13" y="16" as="offset" />
          </mxGeometry>
        </mxCell>
        <mxCell id="EIcoKnqhOw7Y9KkXc619-17" value="surpasses" style="shape=rhombus;perimeter=rhombusPerimeter;whiteSpace=wrap;html=1;align=center;" parent="1" vertex="1">
          <mxGeometry x="377" y="214.5" width="73" height="50" as="geometry" />
        </mxCell>
        <mxCell id="EIcoKnqhOw7Y9KkXc619-24" value="" style="endArrow=none;html=1;rounded=0;dashed=1;dashPattern=1 2;elbow=vertical;" parent="1" source="oy4XWmKs3pjn0zVDLYOn-76" target="oy4XWmKs3pjn0zVDLYOn-68" edge="1">
          <mxGeometry relative="1" as="geometry">
            <mxPoint x="325" y="455" as="sourcePoint" />
            <mxPoint x="485" y="455" as="targetPoint" />
          </mxGeometry>
        </mxCell>
        <mxCell id="EIcoKnqhOw7Y9KkXc619-26" value="N" style="resizable=0;html=1;whiteSpace=wrap;align=right;verticalAlign=bottom;" parent="EIcoKnqhOw7Y9KkXc619-24" connectable="0" vertex="1">
          <mxGeometry x="1" relative="1" as="geometry" />
        </mxCell>
        <mxCell id="EIcoKnqhOw7Y9KkXc619-28" value="" style="endArrow=none;html=1;rounded=0;dashed=1;dashPattern=1 2;elbow=vertical;" parent="1" source="oy4XWmKs3pjn0zVDLYOn-66" target="oy4XWmKs3pjn0zVDLYOn-76" edge="1">
          <mxGeometry relative="1" as="geometry">
            <mxPoint x="685" y="125" as="sourcePoint" />
            <mxPoint x="685" y="315" as="targetPoint" />
          </mxGeometry>
        </mxCell>
        <mxCell id="EIcoKnqhOw7Y9KkXc619-29" value="M" style="resizable=0;html=1;whiteSpace=wrap;align=left;verticalAlign=bottom;" parent="EIcoKnqhOw7Y9KkXc619-28" connectable="0" vertex="1">
          <mxGeometry x="-1" relative="1" as="geometry">
            <mxPoint y="17" as="offset" />
          </mxGeometry>
        </mxCell>
        <mxCell id="oy4XWmKs3pjn0zVDLYOn-76" value="inhabits" style="shape=rhombus;perimeter=rhombusPerimeter;whiteSpace=wrap;html=1;align=center;" parent="1" vertex="1">
          <mxGeometry x="648" y="195" width="78" height="40" as="geometry" />
        </mxCell>
        <mxCell id="EIcoKnqhOw7Y9KkXc619-31" value="" style="endArrow=none;html=1;rounded=0;dashed=1;dashPattern=1 2;elbow=vertical;" parent="1" source="oy4XWmKs3pjn0zVDLYOn-111" target="oy4XWmKs3pjn0zVDLYOn-63" edge="1">
          <mxGeometry relative="1" as="geometry">
            <mxPoint x="325" y="455" as="sourcePoint" />
            <mxPoint x="265" y="435" as="targetPoint" />
          </mxGeometry>
        </mxCell>
        <mxCell id="EIcoKnqhOw7Y9KkXc619-32" value="N" style="resizable=0;html=1;whiteSpace=wrap;align=right;verticalAlign=bottom;" parent="EIcoKnqhOw7Y9KkXc619-31" connectable="0" vertex="1">
          <mxGeometry x="1" relative="1" as="geometry">
            <mxPoint y="17" as="offset" />
          </mxGeometry>
        </mxCell>
        <mxCell id="EIcoKnqhOw7Y9KkXc619-33" value="" style="endArrow=none;html=1;rounded=0;dashed=1;dashPattern=1 2;elbow=vertical;" parent="1" source="oy4XWmKs3pjn0zVDLYOn-111" target="oy4XWmKs3pjn0zVDLYOn-94" edge="1">
          <mxGeometry relative="1" as="geometry">
            <mxPoint x="325" y="455" as="sourcePoint" />
            <mxPoint x="205" y="555" as="targetPoint" />
          </mxGeometry>
        </mxCell>
        <mxCell id="EIcoKnqhOw7Y9KkXc619-34" value="1" style="resizable=0;html=1;whiteSpace=wrap;align=right;verticalAlign=bottom;" parent="EIcoKnqhOw7Y9KkXc619-33" connectable="0" vertex="1">
          <mxGeometry x="1" relative="1" as="geometry" />
        </mxCell>
        <mxCell id="EIcoKnqhOw7Y9KkXc619-35" value="" style="endArrow=none;html=1;rounded=0;dashed=1;dashPattern=1 2;elbow=vertical;" parent="1" source="oy4XWmKs3pjn0zVDLYOn-95" target="oy4XWmKs3pjn0zVDLYOn-94" edge="1">
          <mxGeometry relative="1" as="geometry">
            <mxPoint x="325" y="455" as="sourcePoint" />
            <mxPoint x="485" y="455" as="targetPoint" />
          </mxGeometry>
        </mxCell>
        <mxCell id="EIcoKnqhOw7Y9KkXc619-36" value="N" style="resizable=0;html=1;whiteSpace=wrap;align=right;verticalAlign=bottom;" parent="EIcoKnqhOw7Y9KkXc619-35" connectable="0" vertex="1">
          <mxGeometry x="1" relative="1" as="geometry">
            <mxPoint x="17" y="18" as="offset" />
          </mxGeometry>
        </mxCell>
        <mxCell id="EIcoKnqhOw7Y9KkXc619-37" value="factor" style="ellipse;whiteSpace=wrap;html=1;align=center;" parent="1" vertex="1">
          <mxGeometry x="341" y="259.5" width="53" height="23" as="geometry" />
        </mxCell>
        <mxCell id="EIcoKnqhOw7Y9KkXc619-38" value="" style="endArrow=none;html=1;rounded=0;elbow=vertical;" parent="1" source="EIcoKnqhOw7Y9KkXc619-37" target="EIcoKnqhOw7Y9KkXc619-17" edge="1">
          <mxGeometry relative="1" as="geometry">
            <mxPoint x="205.5" y="1171" as="sourcePoint" />
            <mxPoint x="365.5" y="1171" as="targetPoint" />
          </mxGeometry>
        </mxCell>
        <mxCell id="EIcoKnqhOw7Y9KkXc619-39" value="hp" style="ellipse;whiteSpace=wrap;html=1;align=center;" parent="1" vertex="1">
          <mxGeometry x="260" y="42" width="53" height="20" as="geometry" />
        </mxCell>
        <mxCell id="EIcoKnqhOw7Y9KkXc619-40" value="" style="endArrow=none;html=1;rounded=0;elbow=vertical;" parent="1" source="EIcoKnqhOw7Y9KkXc619-39" target="py68GvTZYO0u-INU6iXj-1" edge="1">
          <mxGeometry relative="1" as="geometry">
            <mxPoint x="507.5" y="178" as="sourcePoint" />
            <mxPoint x="343.41124260355036" y="48" as="targetPoint" />
          </mxGeometry>
        </mxCell>
        <mxCell id="EIcoKnqhOw7Y9KkXc619-41" value="attack" style="ellipse;whiteSpace=wrap;html=1;align=center;" parent="1" vertex="1">
          <mxGeometry x="280" y="19.88" width="53" height="20" as="geometry" />
        </mxCell>
        <mxCell id="EIcoKnqhOw7Y9KkXc619-42" value="" style="endArrow=none;html=1;rounded=0;elbow=vertical;" parent="1" source="EIcoKnqhOw7Y9KkXc619-41" target="py68GvTZYO0u-INU6iXj-1" edge="1">
          <mxGeometry relative="1" as="geometry">
            <mxPoint x="612.5" y="198" as="sourcePoint" />
            <mxPoint x="355.9556213017752" y="48" as="targetPoint" />
          </mxGeometry>
        </mxCell>
        <mxCell id="EIcoKnqhOw7Y9KkXc619-43" value="defence" style="ellipse;whiteSpace=wrap;html=1;align=center;" parent="1" vertex="1">
          <mxGeometry x="320" y="5" width="53" height="20" as="geometry" />
        </mxCell>
        <mxCell id="EIcoKnqhOw7Y9KkXc619-44" value="" style="endArrow=none;html=1;rounded=0;elbow=vertical;" parent="1" source="EIcoKnqhOw7Y9KkXc619-43" target="py68GvTZYO0u-INU6iXj-1" edge="1">
          <mxGeometry relative="1" as="geometry">
            <mxPoint x="333.5" y="-22" as="sourcePoint" />
            <mxPoint x="368.5" y="48" as="targetPoint" />
          </mxGeometry>
        </mxCell>
        <mxCell id="EIcoKnqhOw7Y9KkXc619-45" value="catch&lt;div&gt;probability&lt;/div&gt;" style="ellipse;whiteSpace=wrap;html=1;align=center;" parent="1" vertex="1">
          <mxGeometry x="690" y="2.5" width="73" height="42.5" as="geometry" />
        </mxCell>
        <mxCell id="EIcoKnqhOw7Y9KkXc619-47" value="" style="endArrow=none;html=1;rounded=0;elbow=vertical;" parent="1" source="EIcoKnqhOw7Y9KkXc619-45" target="oy4XWmKs3pjn0zVDLYOn-66" edge="1">
          <mxGeometry relative="1" as="geometry">
            <mxPoint x="115" y="15" as="sourcePoint" />
            <mxPoint x="120" y="105" as="targetPoint" />
          </mxGeometry>
        </mxCell>
        <mxCell id="EIcoKnqhOw7Y9KkXc619-48" value="level" style="ellipse;whiteSpace=wrap;html=1;align=center;" parent="1" vertex="1">
          <mxGeometry x="10" y="39.879999999999995" width="53" height="20" as="geometry" />
        </mxCell>
        <mxCell id="EIcoKnqhOw7Y9KkXc619-49" value="" style="endArrow=none;html=1;rounded=0;elbow=vertical;" parent="1" source="EIcoKnqhOw7Y9KkXc619-48" target="oy4XWmKs3pjn0zVDLYOn-63" edge="1">
          <mxGeometry relative="1" as="geometry">
            <mxPoint x="166" y="-43" as="sourcePoint" />
            <mxPoint x="80.5" y="62" as="targetPoint" />
          </mxGeometry>
        </mxCell>
        <mxCell id="EIcoKnqhOw7Y9KkXc619-50" value="min Level" style="ellipse;whiteSpace=wrap;html=1;align=center;" parent="1" vertex="1">
          <mxGeometry x="712" y="165" width="63" height="30" as="geometry" />
        </mxCell>
        <mxCell id="EIcoKnqhOw7Y9KkXc619-52" value="" style="endArrow=none;html=1;rounded=0;elbow=vertical;" parent="1" source="oy4XWmKs3pjn0zVDLYOn-76" target="EIcoKnqhOw7Y9KkXc619-50" edge="1">
          <mxGeometry relative="1" as="geometry">
            <mxPoint x="230" y="215" as="sourcePoint" />
            <mxPoint x="390" y="215" as="targetPoint" />
          </mxGeometry>
        </mxCell>
        <mxCell id="EIcoKnqhOw7Y9KkXc619-53" value="name" style="ellipse;whiteSpace=wrap;html=1;align=center;" parent="1" vertex="1">
          <mxGeometry x="250" y="65" width="53" height="20" as="geometry" />
        </mxCell>
        <mxCell id="EIcoKnqhOw7Y9KkXc619-54" value="" style="endArrow=none;html=1;rounded=0;elbow=vertical;" parent="1" source="EIcoKnqhOw7Y9KkXc619-53" target="py68GvTZYO0u-INU6iXj-1" edge="1">
          <mxGeometry relative="1" as="geometry">
            <mxPoint x="441.5" y="-22" as="sourcePoint" />
            <mxPoint x="331.94827586206907" y="48" as="targetPoint" />
          </mxGeometry>
        </mxCell>
        <mxCell id="EIcoKnqhOw7Y9KkXc619-57" value="" style="endArrow=none;html=1;rounded=0;elbow=vertical;" parent="1" source="jV4Vpd2NY_LCtvI46k15-21" target="py68GvTZYO0u-INU6iXj-1" edge="1">
          <mxGeometry relative="1" as="geometry">
            <mxPoint x="454.039959777444" y="113.95083389197998" as="sourcePoint" />
            <mxPoint x="423" y="114.5" as="targetPoint" />
          </mxGeometry>
        </mxCell>
        <mxCell id="EIcoKnqhOw7Y9KkXc619-59" value="" style="endArrow=none;html=1;rounded=0;elbow=vertical;" parent="1" source="EIcoKnqhOw7Y9KkXc619-82" target="EIcoKnqhOw7Y9KkXc619-2" edge="1">
          <mxGeometry relative="1" as="geometry">
            <mxPoint x="512.7494523358594" y="379.817798505891" as="sourcePoint" />
            <mxPoint x="59.5" y="941" as="targetPoint" />
          </mxGeometry>
        </mxCell>
        <mxCell id="EIcoKnqhOw7Y9KkXc619-60" value="name" style="ellipse;whiteSpace=wrap;html=1;align=center;" parent="1" vertex="1">
          <mxGeometry x="122" y="471" width="53" height="20" as="geometry" />
        </mxCell>
        <mxCell id="EIcoKnqhOw7Y9KkXc619-64" value="" style="endArrow=none;html=1;rounded=0;elbow=vertical;" parent="1" source="oy4XWmKs3pjn0zVDLYOn-69" target="EIcoKnqhOw7Y9KkXc619-60" edge="1">
          <mxGeometry relative="1" as="geometry">
            <mxPoint x="130" y="423" as="sourcePoint" />
            <mxPoint x="290" y="423" as="targetPoint" />
          </mxGeometry>
        </mxCell>
        <mxCell id="EIcoKnqhOw7Y9KkXc619-66" value="" style="endArrow=none;html=1;rounded=0;elbow=vertical;" parent="1" source="oy4XWmKs3pjn0zVDLYOn-94" target="EIcoKnqhOw7Y9KkXc619-77" edge="1">
          <mxGeometry relative="1" as="geometry">
            <mxPoint x="-10" y="705" as="sourcePoint" />
            <mxPoint x="30" y="675" as="targetPoint" />
          </mxGeometry>
        </mxCell>
        <mxCell id="EIcoKnqhOw7Y9KkXc619-69" value="" style="endArrow=none;html=1;rounded=0;elbow=vertical;" parent="1" source="oy4XWmKs3pjn0zVDLYOn-68" target="EIcoKnqhOw7Y9KkXc619-90" edge="1">
          <mxGeometry relative="1" as="geometry">
            <mxPoint x="665" y="345" as="sourcePoint" />
            <mxPoint x="725.7152330911472" y="375.7152330911472" as="targetPoint" />
          </mxGeometry>
        </mxCell>
        <mxCell id="EIcoKnqhOw7Y9KkXc619-71" value="" style="endArrow=none;html=1;rounded=0;elbow=vertical;" parent="1" source="oy4XWmKs3pjn0zVDLYOn-69" target="EIcoKnqhOw7Y9KkXc619-72" edge="1">
          <mxGeometry relative="1" as="geometry">
            <mxPoint x="158" y="333" as="sourcePoint" />
            <mxPoint x="162.7849157766882" y="301.7250601595083" as="targetPoint" />
          </mxGeometry>
        </mxCell>
        <mxCell id="EIcoKnqhOw7Y9KkXc619-72" value="ID" style="ellipse;whiteSpace=wrap;html=1;align=center;fontStyle=4;" parent="1" vertex="1">
          <mxGeometry x="111" y="511" width="53" height="20" as="geometry" />
        </mxCell>
        <mxCell id="EIcoKnqhOw7Y9KkXc619-75" value="" style="endArrow=none;html=1;rounded=0;elbow=vertical;" parent="1" source="oy4XWmKs3pjn0zVDLYOn-70" target="EIcoKnqhOw7Y9KkXc619-76" edge="1">
          <mxGeometry relative="1" as="geometry">
            <mxPoint x="288" y="850.26" as="sourcePoint" />
            <mxPoint x="315.7849157766882" y="828.9850601595083" as="targetPoint" />
          </mxGeometry>
        </mxCell>
        <mxCell id="EIcoKnqhOw7Y9KkXc619-76" value="name" style="ellipse;whiteSpace=wrap;html=1;align=center;fontStyle=4;" parent="1" vertex="1">
          <mxGeometry x="391" y="472" width="53" height="20" as="geometry" />
        </mxCell>
        <mxCell id="EIcoKnqhOw7Y9KkXc619-77" value="name" style="ellipse;whiteSpace=wrap;html=1;align=center;fontStyle=4;" parent="1" vertex="1">
          <mxGeometry x="6" y="702" width="53" height="20" as="geometry" />
        </mxCell>
        <mxCell id="EIcoKnqhOw7Y9KkXc619-78" value="max Level" style="ellipse;whiteSpace=wrap;html=1;align=center;" parent="1" vertex="1">
          <mxGeometry x="712" y="235" width="63" height="30" as="geometry" />
        </mxCell>
        <mxCell id="EIcoKnqhOw7Y9KkXc619-79" value="" style="endArrow=none;html=1;rounded=0;elbow=vertical;" parent="1" source="oy4XWmKs3pjn0zVDLYOn-76" target="EIcoKnqhOw7Y9KkXc619-78" edge="1">
          <mxGeometry relative="1" as="geometry">
            <mxPoint x="710" y="213" as="sourcePoint" />
            <mxPoint x="735" y="193" as="targetPoint" />
          </mxGeometry>
        </mxCell>
        <mxCell id="EIcoKnqhOw7Y9KkXc619-82" value="name" style="ellipse;whiteSpace=wrap;html=1;align=center;fontStyle=4;" parent="1" vertex="1">
          <mxGeometry x="495.5" y="284" width="53" height="20" as="geometry" />
        </mxCell>
        <mxCell id="EIcoKnqhOw7Y9KkXc619-83" value="money" style="ellipse;whiteSpace=wrap;html=1;align=center;" parent="1" vertex="1">
          <mxGeometry x="152" y="449" width="53" height="20" as="geometry" />
        </mxCell>
        <mxCell id="EIcoKnqhOw7Y9KkXc619-84" value="" style="endArrow=none;html=1;rounded=0;elbow=vertical;" parent="1" source="oy4XWmKs3pjn0zVDLYOn-69" target="EIcoKnqhOw7Y9KkXc619-83" edge="1">
          <mxGeometry relative="1" as="geometry">
            <mxPoint x="138" y="463" as="sourcePoint" />
            <mxPoint x="315" y="563" as="targetPoint" />
          </mxGeometry>
        </mxCell>
        <mxCell id="EIcoKnqhOw7Y9KkXc619-85" value="costs" style="ellipse;whiteSpace=wrap;html=1;align=center;" parent="1" vertex="1">
          <mxGeometry x="41" y="680" width="53" height="20" as="geometry" />
        </mxCell>
        <mxCell id="EIcoKnqhOw7Y9KkXc619-86" value="" style="endArrow=none;html=1;rounded=0;elbow=vertical;" parent="1" source="oy4XWmKs3pjn0zVDLYOn-94" target="EIcoKnqhOw7Y9KkXc619-85" edge="1">
          <mxGeometry relative="1" as="geometry">
            <mxPoint x="232" y="325" as="sourcePoint" />
            <mxPoint x="425" y="525" as="targetPoint" />
          </mxGeometry>
        </mxCell>
        <mxCell id="EIcoKnqhOw7Y9KkXc619-90" value="name" style="ellipse;whiteSpace=wrap;html=1;align=center;fontStyle=4;" parent="1" vertex="1">
          <mxGeometry x="717" y="375" width="53" height="20" as="geometry" />
        </mxCell>
        <mxCell id="SKxqaBeNZBVm__Oe-bV2-2" value="" style="endArrow=none;html=1;rounded=0;elbow=vertical;" parent="1" source="SKxqaBeNZBVm__Oe-bV2-1" target="py68GvTZYO0u-INU6iXj-1" edge="1">
          <mxGeometry relative="1" as="geometry">
            <mxPoint x="387.5" y="-23.5" as="sourcePoint" />
            <mxPoint x="381.0443786982248" y="48" as="targetPoint" />
          </mxGeometry>
        </mxCell>
        <mxCell id="BG2wjlnEhy1xPEQz9ARY-1" value="derives" style="shape=rhombus;perimeter=rhombusPerimeter;whiteSpace=wrap;html=1;align=center;" parent="1" vertex="1">
          <mxGeometry x="391" y="310" width="53" height="50" as="geometry" />
        </mxCell>
        <mxCell id="BG2wjlnEhy1xPEQz9ARY-2" value="" style="endArrow=none;html=1;rounded=0;elbow=vertical;" parent="1" source="BG2wjlnEhy1xPEQz9ARY-1" target="EIcoKnqhOw7Y9KkXc619-2" edge="1">
          <mxGeometry relative="1" as="geometry">
            <mxPoint x="484.49" y="762" as="sourcePoint" />
            <mxPoint x="543.5265853658536" y="272" as="targetPoint" />
          </mxGeometry>
        </mxCell>
        <mxCell id="BG2wjlnEhy1xPEQz9ARY-3" value="N" style="resizable=0;html=1;whiteSpace=wrap;align=right;verticalAlign=bottom;" parent="BG2wjlnEhy1xPEQz9ARY-2" connectable="0" vertex="1">
          <mxGeometry x="1" relative="1" as="geometry">
            <mxPoint x="8" y="17" as="offset" />
          </mxGeometry>
        </mxCell>
        <mxCell id="BG2wjlnEhy1xPEQz9ARY-4" value="" style="endArrow=none;html=1;rounded=0;elbow=vertical;" parent="1" source="oy4XWmKs3pjn0zVDLYOn-70" target="BG2wjlnEhy1xPEQz9ARY-1" edge="1">
          <mxGeometry relative="1" as="geometry">
            <mxPoint x="551.9636842105263" y="376.76" as="sourcePoint" />
            <mxPoint x="388.25773195876286" y="315.00226804123713" as="targetPoint" />
          </mxGeometry>
        </mxCell>
        <mxCell id="BG2wjlnEhy1xPEQz9ARY-5" value="M" style="resizable=0;html=1;whiteSpace=wrap;align=left;verticalAlign=bottom;" parent="BG2wjlnEhy1xPEQz9ARY-4" connectable="0" vertex="1">
          <mxGeometry x="-1" relative="1" as="geometry">
            <mxPoint x="7" as="offset" />
          </mxGeometry>
        </mxCell>
        <mxCell id="BG2wjlnEhy1xPEQz9ARY-6" value="type" style="ellipse;whiteSpace=wrap;html=1;align=center;fontStyle=4;" parent="1" vertex="1">
          <mxGeometry x="527.5" y="745" width="53" height="20" as="geometry" />
        </mxCell>
        <mxCell id="BG2wjlnEhy1xPEQz9ARY-8" value="" style="endArrow=none;html=1;rounded=0;" parent="1" source="BG2wjlnEhy1xPEQz9ARY-6" target="oy4XWmKs3pjn0zVDLYOn-90" edge="1">
          <mxGeometry relative="1" as="geometry">
            <mxPoint x="290" y="462" as="sourcePoint" />
            <mxPoint x="450" y="462" as="targetPoint" />
          </mxGeometry>
        </mxCell>
        <mxCell id="BG2wjlnEhy1xPEQz9ARY-10" value="" style="endArrow=none;html=1;rounded=0;elbow=vertical;" parent="1" source="oy4XWmKs3pjn0zVDLYOn-86" target="BG2wjlnEhy1xPEQz9ARY-11" edge="1">
          <mxGeometry relative="1" as="geometry">
            <mxPoint x="665" y="705" as="sourcePoint" />
            <mxPoint x="650" y="625" as="targetPoint" />
          </mxGeometry>
        </mxCell>
        <mxCell id="BG2wjlnEhy1xPEQz9ARY-11" value="name" style="ellipse;whiteSpace=wrap;html=1;align=center;fontStyle=4;" parent="1" vertex="1">
          <mxGeometry x="612" y="702" width="53" height="20" as="geometry" />
        </mxCell>
        <mxCell id="BG2wjlnEhy1xPEQz9ARY-13" value="damage" style="ellipse;whiteSpace=wrap;html=1;align=center;" parent="1" vertex="1">
          <mxGeometry x="447" y="465" width="53" height="20" as="geometry" />
        </mxCell>
        <mxCell id="BG2wjlnEhy1xPEQz9ARY-14" value="" style="endArrow=none;html=1;rounded=0;elbow=vertical;" parent="1" source="oy4XWmKs3pjn0zVDLYOn-70" target="BG2wjlnEhy1xPEQz9ARY-13" edge="1">
          <mxGeometry relative="1" as="geometry">
            <mxPoint x="665" y="851.26" as="sourcePoint" />
            <mxPoint x="645" y="851.26" as="targetPoint" />
          </mxGeometry>
        </mxCell>
        <mxCell id="BG2wjlnEhy1xPEQz9ARY-15" value="amount" style="ellipse;whiteSpace=wrap;html=1;align=center;" parent="1" vertex="1">
          <mxGeometry x="272" y="638" width="53" height="20" as="geometry" />
        </mxCell>
        <mxCell id="BG2wjlnEhy1xPEQz9ARY-16" value="" style="endArrow=none;html=1;rounded=0;elbow=vertical;" parent="1" source="BG2wjlnEhy1xPEQz9ARY-15" target="oy4XWmKs3pjn0zVDLYOn-98" edge="1">
          <mxGeometry relative="1" as="geometry">
            <mxPoint x="299" y="662" as="sourcePoint" />
            <mxPoint x="264" y="629" as="targetPoint" />
          </mxGeometry>
        </mxCell>
        <mxCell id="zmXSOXtUOnebCPKsorQv-1" value="evolves" style="shape=rhombus;perimeter=rhombusPerimeter;whiteSpace=wrap;html=1;align=center;direction=south;" parent="1" vertex="1">
          <mxGeometry x="270" y="125" width="53" height="50" as="geometry" />
        </mxCell>
        <mxCell id="zmXSOXtUOnebCPKsorQv-2" value="" style="endArrow=none;html=1;rounded=0;dashed=1;dashPattern=1 2;entryX=0;entryY=0.75;entryDx=0;entryDy=0;" parent="1" source="zmXSOXtUOnebCPKsorQv-1" target="py68GvTZYO0u-INU6iXj-1" edge="1">
          <mxGeometry relative="1" as="geometry">
            <mxPoint x="678.56" y="265.5" as="sourcePoint" />
            <mxPoint x="489.55999999999995" y="128.5" as="targetPoint" />
            <Array as="points">
              <mxPoint x="295" y="115" />
            </Array>
          </mxGeometry>
        </mxCell>
        <mxCell id="zmXSOXtUOnebCPKsorQv-3" value="1" style="resizable=0;html=1;whiteSpace=wrap;align=right;verticalAlign=bottom;" parent="zmXSOXtUOnebCPKsorQv-2" connectable="0" vertex="1">
          <mxGeometry x="1" relative="1" as="geometry">
            <mxPoint x="-1" y="15" as="offset" />
          </mxGeometry>
        </mxCell>
        <mxCell id="zmXSOXtUOnebCPKsorQv-4" value="" style="endArrow=none;html=1;rounded=0;entryX=0.4;entryY=0.9;entryDx=0;entryDy=0;entryPerimeter=0;" parent="1" source="zmXSOXtUOnebCPKsorQv-1" target="py68GvTZYO0u-INU6iXj-1" edge="1">
          <mxGeometry relative="1" as="geometry">
            <mxPoint x="483.8374476071317" y="105.77744760713176" as="sourcePoint" />
            <mxPoint x="532.5011764705882" y="78.5" as="targetPoint" />
            <Array as="points">
              <mxPoint x="360" y="152" />
            </Array>
          </mxGeometry>
        </mxCell>
        <mxCell id="zmXSOXtUOnebCPKsorQv-5" value="1" style="resizable=0;html=1;whiteSpace=wrap;align=right;verticalAlign=bottom;" parent="zmXSOXtUOnebCPKsorQv-4" connectable="0" vertex="1">
          <mxGeometry x="1" relative="1" as="geometry">
            <mxPoint x="-1" y="21" as="offset" />
          </mxGeometry>
        </mxCell>
        <mxCell id="zmXSOXtUOnebCPKsorQv-6" value="level" style="ellipse;whiteSpace=wrap;html=1;align=center;" parent="1" vertex="1">
          <mxGeometry x="305" y="175" width="53" height="20" as="geometry" />
        </mxCell>
        <mxCell id="zmXSOXtUOnebCPKsorQv-7" value="" style="endArrow=none;html=1;rounded=0;" parent="1" source="zmXSOXtUOnebCPKsorQv-1" target="zmXSOXtUOnebCPKsorQv-6" edge="1">
          <mxGeometry relative="1" as="geometry">
            <mxPoint x="155" y="43.5" as="sourcePoint" />
            <mxPoint x="315" y="43.5" as="targetPoint" />
          </mxGeometry>
        </mxCell>
        <mxCell id="py68GvTZYO0u-INU6iXj-1" value="Pokemon Blueprint" style="whiteSpace=wrap;html=1;align=center;" parent="1" vertex="1">
          <mxGeometry x="320" y="85" width="103" height="40" as="geometry" />
        </mxCell>
        <mxCell id="jV4Vpd2NY_LCtvI46k15-5" value="" style="endArrow=classic;html=1;rounded=0;" edge="1" parent="1" source="oy4XWmKs3pjn0zVDLYOn-62" target="py68GvTZYO0u-INU6iXj-1">
          <mxGeometry width="50" height="50" relative="1" as="geometry">
            <mxPoint x="340" y="162" as="sourcePoint" />
            <mxPoint x="390" y="112" as="targetPoint" />
          </mxGeometry>
        </mxCell>
        <mxCell id="jV4Vpd2NY_LCtvI46k15-8" value="" style="endArrow=none;html=1;rounded=0;" edge="1" source="jV4Vpd2NY_LCtvI46k15-10" parent="1" target="oy4XWmKs3pjn0zVDLYOn-63">
          <mxGeometry relative="1" as="geometry">
            <mxPoint x="325" y="282" as="sourcePoint" />
            <mxPoint x="636" y="62" as="targetPoint" />
          </mxGeometry>
        </mxCell>
        <mxCell id="jV4Vpd2NY_LCtvI46k15-9" value="" style="endArrow=classic;html=1;rounded=0;" edge="1" source="jV4Vpd2NY_LCtvI46k15-10" parent="1" target="py68GvTZYO0u-INU6iXj-1">
          <mxGeometry width="50" height="50" relative="1" as="geometry">
            <mxPoint x="390.5" y="379" as="sourcePoint" />
            <mxPoint x="191.5" y="322" as="targetPoint" />
          </mxGeometry>
        </mxCell>
        <mxCell id="jV4Vpd2NY_LCtvI46k15-10" value="is a" style="shape=rhombus;perimeter=rhombusPerimeter;whiteSpace=wrap;html=1;align=center;" vertex="1" parent="1">
          <mxGeometry x="205" y="85" width="43" height="40" as="geometry" />
        </mxCell>
        <mxCell id="jV4Vpd2NY_LCtvI46k15-11" value="ID" style="ellipse;whiteSpace=wrap;html=1;align=center;fontStyle=4;" vertex="1" parent="1">
          <mxGeometry x="66" y="22" width="53" height="20" as="geometry" />
        </mxCell>
        <mxCell id="jV4Vpd2NY_LCtvI46k15-12" value="" style="endArrow=none;html=1;rounded=0;elbow=vertical;" edge="1" source="jV4Vpd2NY_LCtvI46k15-11" parent="1" target="oy4XWmKs3pjn0zVDLYOn-63">
          <mxGeometry relative="1" as="geometry">
            <mxPoint x="144" y="-54" as="sourcePoint" />
            <mxPoint x="200" y="35.5" as="targetPoint" />
          </mxGeometry>
        </mxCell>
        <mxCell id="jV4Vpd2NY_LCtvI46k15-16" value="spe defence" style="ellipse;whiteSpace=wrap;html=1;align=center;" vertex="1" parent="1">
          <mxGeometry x="412.5" y="23.5" width="73" height="17" as="geometry" />
        </mxCell>
        <mxCell id="jV4Vpd2NY_LCtvI46k15-17" value="" style="endArrow=none;html=1;rounded=0;elbow=vertical;" edge="1" source="jV4Vpd2NY_LCtvI46k15-16" parent="1" target="py68GvTZYO0u-INU6iXj-1">
          <mxGeometry relative="1" as="geometry">
            <mxPoint x="394.5" y="140.75" as="sourcePoint" />
            <mxPoint x="454" y="259.25" as="targetPoint" />
          </mxGeometry>
        </mxCell>
        <mxCell id="jV4Vpd2NY_LCtvI46k15-18" value="spe attack" style="ellipse;whiteSpace=wrap;html=1;align=center;" vertex="1" parent="1">
          <mxGeometry x="370" y="7.129999999999999" width="71" height="15.75" as="geometry" />
        </mxCell>
        <mxCell id="jV4Vpd2NY_LCtvI46k15-19" value="" style="endArrow=none;html=1;rounded=0;elbow=vertical;" edge="1" source="SKxqaBeNZBVm__Oe-bV2-1" parent="1" target="py68GvTZYO0u-INU6iXj-1">
          <mxGeometry relative="1" as="geometry">
            <mxPoint x="673.5" y="360.75" as="sourcePoint" />
            <mxPoint x="441" y="259.25" as="targetPoint" />
          </mxGeometry>
        </mxCell>
        <mxCell id="jV4Vpd2NY_LCtvI46k15-21" value="ID" style="ellipse;whiteSpace=wrap;html=1;align=center;fontStyle=4;" vertex="1" parent="1">
          <mxGeometry x="450" y="72" width="53" height="20" as="geometry" />
        </mxCell>
        <mxCell id="jV4Vpd2NY_LCtvI46k15-22" value="" style="endArrow=none;html=1;rounded=0;elbow=vertical;" edge="1" parent="1" source="jV4Vpd2NY_LCtvI46k15-18" target="py68GvTZYO0u-INU6iXj-1">
          <mxGeometry relative="1" as="geometry">
            <mxPoint x="501" y="71" as="sourcePoint" />
            <mxPoint x="423" y="99" as="targetPoint" />
          </mxGeometry>
        </mxCell>
        <mxCell id="SKxqaBeNZBVm__Oe-bV2-1" value="initiative" style="ellipse;whiteSpace=wrap;html=1;align=center;" parent="1" vertex="1">
          <mxGeometry x="445" y="42" width="53" height="20" as="geometry" />
        </mxCell>
        <mxCell id="jV4Vpd2NY_LCtvI46k15-40" value="level" style="ellipse;whiteSpace=wrap;html=1;align=center;" vertex="1" parent="1">
          <mxGeometry x="620" y="24.999999999999996" width="53" height="20" as="geometry" />
        </mxCell>
        <mxCell id="jV4Vpd2NY_LCtvI46k15-41" value="" style="endArrow=none;html=1;rounded=0;elbow=vertical;" edge="1" source="jV4Vpd2NY_LCtvI46k15-40" parent="1" target="oy4XWmKs3pjn0zVDLYOn-66">
          <mxGeometry relative="1" as="geometry">
            <mxPoint x="756" y="-56" as="sourcePoint" />
            <mxPoint x="662" y="72" as="targetPoint" />
          </mxGeometry>
        </mxCell>
        <mxCell id="jV4Vpd2NY_LCtvI46k15-49" value="knows" style="shape=rhombus;perimeter=rhombusPerimeter;whiteSpace=wrap;html=1;align=center;" vertex="1" parent="1">
          <mxGeometry x="548.5" y="310" width="53" height="50" as="geometry" />
        </mxCell>
        <mxCell id="jV4Vpd2NY_LCtvI46k15-50" value="" style="endArrow=none;html=1;rounded=0;" edge="1" target="jV4Vpd2NY_LCtvI46k15-49" parent="1" source="oy4XWmKs3pjn0zVDLYOn-66">
          <mxGeometry relative="1" as="geometry">
            <mxPoint x="325" y="219.5" as="sourcePoint" />
            <mxPoint x="268" y="359.5" as="targetPoint" />
          </mxGeometry>
        </mxCell>
        <mxCell id="jV4Vpd2NY_LCtvI46k15-51" value="M" style="resizable=0;html=1;whiteSpace=wrap;align=left;verticalAlign=bottom;" connectable="0" vertex="1" parent="jV4Vpd2NY_LCtvI46k15-50">
          <mxGeometry x="-1" relative="1" as="geometry">
            <mxPoint x="-20" y="16" as="offset" />
          </mxGeometry>
        </mxCell>
        <mxCell id="jV4Vpd2NY_LCtvI46k15-52" value="" style="endArrow=none;html=1;rounded=0;" edge="1" source="jV4Vpd2NY_LCtvI46k15-49" parent="1" target="oy4XWmKs3pjn0zVDLYOn-70">
          <mxGeometry relative="1" as="geometry">
            <mxPoint x="600" y="508.5" as="sourcePoint" />
            <mxPoint x="610" y="504.5" as="targetPoint" />
          </mxGeometry>
        </mxCell>
        <mxCell id="jV4Vpd2NY_LCtvI46k15-53" value="N" style="resizable=0;html=1;whiteSpace=wrap;align=right;verticalAlign=bottom;" connectable="0" vertex="1" parent="jV4Vpd2NY_LCtvI46k15-52">
          <mxGeometry x="1" relative="1" as="geometry">
            <mxPoint x="28" y="3" as="offset" />
          </mxGeometry>
        </mxCell>
      </root>
    </mxGraphModel>
  </diagram>
</mxfile>
